<?xml version="1.0" encoding="utf-8"?>
<!-- Generator: Adobe Illustrator 24.3.0, SVG Export Plug-In . SVG Version: 6.00 Build 0)  -->
<svg version="1.1" id="Layer_1" xmlns="http://www.w3.org/2000/svg" xmlns:xlink="http://www.w3.org/1999/xlink" x="0px" y="0px"
	 viewBox="0 0 1920 1080" style="enable-background:new 0 0 1920 1080;" xml:space="preserve">
<style type="text/css">
	.st0{fill:none;stroke:#000000;stroke-width:6;stroke-miterlimit:10;}
	.st1{fill:none;stroke:#000000;stroke-width:2;stroke-miterlimit:10;}
</style>
<g>
	<polygon class="st0" points="528.5,77.5 543.5,81.5 556.5,85.5 566.5,94.5 594.5,91.5 626.2,94.5 651.5,101.5 662.5,101.5 
		667.5,108.5 690.5,108.5 699.5,102.5 710.5,106.5 736.5,111.5 753.5,122.5 780.5,120.5 820.5,108.5 833.5,109.5 846.3,100 
		857.5,100 864.5,91.5 884.5,91.5 894.5,97.5 907.5,109.5 911.5,115.5 911.5,119.4 918.5,117.5 942.5,138.5 946.5,148.5 
		956.5,154.5 969.5,162.5 979.5,162.5 995.5,154.5 1019.5,157.5 1025,162.5 1033.2,162.5 1038.5,154.5 1052.5,154.5 1063.5,140.5 
		1067.5,140.5 1069.5,151.5 1088.5,167.5 1088.5,174.5 1105.5,188.5 1134.5,202.5 1145.5,219.5 1165.5,236.5 1181.5,260.5 
		1190.5,275.5 1216.5,277.5 1231.5,289.5 1235.5,308.5 1226.5,332.5 1223.5,343.5 1253.5,346.5 1267.5,336.5 1276.5,336.5 
		1300.5,349.5 1308.5,362.5 1308.5,380.3 1298.5,391.5 1283.5,396.5 1267.5,410.5 1263.5,422.5 1263.5,438.5 1265.5,458.5 
		1267.5,473.5 1269.5,487.5 1258.5,505.5 1259.5,526.5 1265,540 1266.5,546.5 1259.5,558.5 1258.5,566.5 1256.5,576.5 1258.5,584.5 
		1253.5,593.5 1271.5,620.5 1280.8,620.5 1296.5,646.5 1296.5,656.5 1303.5,665.5 1303.5,689.5 1297.5,698.5 1296.5,716.5 
		1281.5,730.5 1276.5,747.5 1246.5,769.5 1236.9,769.5 1234.5,772.5 1224.7,772.5 1226.5,778.5 1230.3,778.5 1230.5,790.5 
		1232.5,796.5 1227.5,800.5 1218.5,806.5 1220.5,813.5 1215.5,818.5 1210.5,815.5 1208.5,823.5 1213.5,831.5 1212.5,854.5 
		1220.5,856.5 1222.5,863.5 1229.5,870.5 1231.5,861.5 1237.5,859.5 1242.5,863.5 1243.5,873.5 1236.5,880.5 1228.5,882.5 
		1221.5,879.5 1212.5,876.5 1206.5,872.5 1201.5,874.5 1195.5,874.5 1191.5,879.5 1192.5,887.5 1194.5,896.5 1195.5,905.5 
		1195.5,911.5 1200.5,919.5 1203.5,923.5 1198.5,929.5 1189.5,920.5 1189.4,929.5 1192.5,936.5 1194.5,944.5 1194.5,950.5 
		1187.9,950.5 1184.5,939.5 1179.5,933.5 1181.5,919.5 1176.5,913.5 1175.5,902.5 1166.5,901.5 1152.5,924.5 1135.5,924.5 
		1130.5,929.5 1118.5,928.5 1110.5,944.5 1109.5,961.5 1099.5,981.5 1092.4,981.5 1081.5,967.5 1074.5,967.5 1069.5,959.5 
		1032.5,955.5 1015.5,959.5 1004.5,956.5 1003.5,939.5 993.5,932.5 1002.5,923.5 1000.5,917.5 1010.5,918.5 1011.5,923.5 
		1017.5,922.5 1016.5,912.5 1004.5,907.5 1007.5,893.5 1002.5,893.5 997.5,899.5 986.5,900.5 965.5,882.5 953.5,877.5 932.5,839.5 
		914.5,834.5 881.5,779.5 873.5,762.5 873.5,747.5 885.5,739.5 887.5,724.5 881.5,710.5 871.5,697.5 862.5,673.5 852.5,674.5 
		838.5,656.5 835.5,636.5 819.5,624.5 802.5,632.5 791.5,632.5 786.5,619.5 787.5,602.5 781.5,586.5 783.5,574.5 782.5,562.5 
		774.5,552.5 769.5,557.5 767.5,549.5 774.5,544.5 781.5,525.5 780.5,498.5 772.5,472.5 769.5,456.5 765.5,437.5 746.5,400.5 
		738.5,397.5 722.5,360.5 711.5,349.5 707.5,335.5 692.5,320.5 692.5,311.5 661.5,305.5 649.5,287.5 637.5,290.5 624.5,287.5 
		616.5,283.5 606.5,289.5 606.5,271.5 600.5,257.5 589.5,262.5 573.5,237.5 581.5,230.5 572.5,204.5 565.5,185.5 566.5,175.5 
		570.5,167.5 557.5,154.5 543.5,150.5 528.5,159.7 514.5,161.5 517.5,174.5 514.5,184.2 507.5,187.5 501.5,182.5 481.5,181.5 
		457.5,150.5 455.5,142.5 448.5,135.5 451.5,132.5 456.5,132.5 455.5,121.5 459.5,112.5 464.5,106.5 473.5,100.5 480.5,94.5 
		494.5,88.5 509.5,83.5 	"/>
	<polygon class="st1" points="854.8,100 849.4,162.5 791.5,250 834,266.6 911.5,117.9 892.3,96.2 873.9,91.5 863,91.5 	"/>
	<polygon class="st1" points="834.9,266.6 918.3,308.9 960,228.4 979.5,162.5 969.5,162.5 946.5,148.5 942.5,138.5 918.5,117.5 
		910.8,122.2 	"/>
	<polygon class="st1" points="918.9,309.6 961.7,335.7 988.8,262.1 1009.4,227.4 1016.9,199.8 1016.9,188.6 1027.1,179.1 
		1027.1,162.5 1018.4,157.4 995.5,154.5 979.5,164.6 959.3,229.7 	"/>
	<polygon class="st1" points="976,300 1071.7,239.7 1135.2,203.6 1105.5,188.5 1088.5,174.5 1088.5,167.5 1069.5,151.5 
		1067.5,140.5 1063.5,140.5 1052.5,154.5 1038.5,154.5 1034.5,162.5 1025,162.5 1026,180.9 1017.4,187.3 1015.3,209.3 1007.1,233.5 
		991.1,256.5 	"/>
	<polygon class="st1" points="960.8,335.4 977,298.1 1053.6,250.1 1135.8,204.5 1145.5,219.5 1165.5,236.5 1190.5,275.5 
		1216.5,277.5 1231.5,289.5 1232.3,293.2 1189,314 1185,301 1186.4,289.1 1176.9,286 1176.9,280.3 1170.7,280.3 1164.9,280.9 
		1162.6,287.4 1156.4,286.7 1157.4,280.3 1153.7,279.2 1149.3,283.7 1150.6,291.5 1115.9,299.7 1054,303.4 1051.7,309 1054,314 
		1055.6,323.4 1049,337.7 1043.1,354.5 1043.4,366 1031.1,376.6 	"/>
	<polygon class="st1" points="1031.1,376.6 1094.1,397 1142.8,359.9 1140.1,352.1 1142.8,350.7 1142.8,334 1150.3,325.2 
		1150.3,317.4 1155.7,311.9 1151.7,308.5 1151.7,300.3 1155.7,297.6 1150.6,290.5 1113.5,299.7 1054.3,302.7 1051.3,309.2 
		1054.3,314 1055.7,323.8 1048.2,339.5 1043.1,355.8 1042.7,366.7 	"/>
	<polygon class="st1" points="1094.1,399.1 1141.8,358.9 1152,366 1166,364.3 1172.8,356.9 1214.3,371.5 1242.2,372.2 1239,376.9 
		1236.1,383.3 1230,381 1219.7,395.3 1219.4,402.5 1209.5,406.2 1207.7,411.1 1204.8,417.1 1201.7,422.2 1205.8,427 1202,431.1 
		1185.4,436.5 1178.9,431.4 1163.6,431.4 1138.1,433.3 1094.1,437.5 	"/>
	<polygon class="st1" points="1232.3,293.2 1189,314 1184.3,323.8 1191.8,332 1189,339.1 1172.8,356.9 1214.3,371.5 1241.2,372.5 
		1278.6,372.5 1308.5,364 1300.5,349.5 1276.5,336.5 1265.8,337.7 1253.5,346.5 1223.5,343.5 1235.5,308.5 	"/>
	<polygon class="st1" points="1093.1,436.5 1165.6,431.4 1168.2,431.4 1171.7,431.4 1179.9,431.4 1185.4,436.5 1195.6,434 
		1203.4,431.4 1205.8,427 1201.7,422.2 1205.8,416.4 1209.5,406.2 1219.4,402.5 1220.8,393.7 1230,381 1236.1,383.3 1241.2,372.2 
		1278.6,372.2 1308.5,365.4 1308.5,380.3 1298.5,391.5 1283.5,396.5 1267.5,410.5 1263.5,422.5 1263.5,438.5 1264.3,447 
		1193.2,449.8 1093.1,481.8 	"/>
	<polygon class="st1" points="1093.4,481.4 1195.2,449.8 1264.3,447 1269.5,487.5 1258.5,505.5 1259.5,526.5 1228.9,532.2 
		1095.1,534.6 	"/>
	<polygon class="st1" points="1094.1,534.2 1232,532.5 1259.5,526.5 1266.5,546.5 1259.5,558.5 1255.5,578.7 1214.6,578.7 
		1094.1,578.7 	"/>
	<polygon class="st1" points="1095.5,578.7 1258.4,578.7 1258.5,584.5 1253.5,593.5 1271.5,620.5 1280.8,620.5 1296.5,646.5 
		1296.5,656.5 1303.5,665.5 1303.5,689.5 1297.5,698.5 1282.7,698.5 1258.4,684.7 1244.1,678.9 1097.2,678.9 	"/>
	<polygon class="st1" points="1138,679.2 1162.9,691.8 1177.2,691.8 1209.3,703.4 1222.8,697 1238.1,699 1248,710.2 1249.7,723.5 
		1262.2,731.7 1262.2,744 1272,750.8 1276.5,747.5 1281.5,730.5 1296.5,716.5 1297.5,698.5 1282.7,698.5 1247,679.2 	"/>
	<polygon class="st1" points="1096.5,678.9 1244.6,678.9 1249.2,680.5 1259.3,685.2 1268.6,690.5 1282.7,698.5 1297.5,698.5 
		1296.5,716.5 1281.5,730.5 1276.5,747.5 1246.5,769.5 1236.9,769.5 1234.5,772.5 1224.7,772.5 1226.5,778.5 1230.3,778.5 
		1230.5,790.5 1232.5,796.5 1218.5,806.5 1220.5,813.5 1215.5,818.5 1209.3,811.6 1089,811.6 	"/>
	<polygon class="st1" points="1088.3,811.6 1209.3,811.6 1210.5,815.5 1208.5,823.5 1213.5,831.5 1212.5,854.5 1220.5,856.5 
		1222.5,863.5 1229.5,870.5 1231.5,861.5 1237.5,859.5 1242.5,863.5 1243.5,873.5 1236.5,880.5 1228.5,882.5 1221.5,879.5 
		1212.5,876.5 1206.5,872.5 1201.5,874.5 1195.5,874.5 1191.5,879.5 1194.5,896.5 1195.5,911.5 1203.5,923.5 1198.5,929.5 
		1189.5,920.5 1189.4,929.5 1192.5,936.5 1194.5,944.5 1194.5,950.5 1187.9,950.5 1184.5,939.5 1179.5,933.5 1181.5,919.5 
		1176.5,913.5 1175.5,902.5 1166.5,901.5 1152.5,924.5 1135.5,924.5 1130.5,929.5 1118.5,928.5 1110.5,944.5 1109.5,961.5 
		1099.5,981.5 1092.4,981.5 	"/>
</g>
</svg>
